<svg xmlns="http://www.w3.org/2000/svg" width="180" height="180"><g data-name="favicon"><path data-name="長方形 41" fill="#061944" d="M0 0h180v180H0z"/><g data-name="グループ 75"><path data-name="パス 16" d="M79.46 151.23H31.74V34.05h117.62v97.93" fill="none" stroke="#fff" stroke-miterlimit="10" stroke-width="5"/></g></g><g data-name="グループ 76" fill="#fff"><path data-name="パス 24" d="M87.68 138.71h1.57l.06.9h.1a1.41 1.41 0 01.72-.79 2.746 2.746 0 011.11-.22 2.277 2.277 0 011.29.32 1.872 1.872 0 01.67 1.11 9.162 9.162 0 01.21 2.23 9.694 9.694 0 01-.2 2.22 1.872 1.872 0 01-.66 1.13 2.062 2.062 0 01-1.27.34 2.789 2.789 0 01-1.11-.2 1.528 1.528 0 01-.71-.69h-.1v3.53h-1.68zm3.66 5.61a.737.737 0 00.31-.55 13.915 13.915 0 000-2.98.73.73 0 00-.31-.56 1.72 1.72 0 00-.81-.13 1.423 1.423 0 00-.69.14.761.761 0 00-.34.45 5.659 5.659 0 00-.15 1.6 5.814 5.814 0 00.13 1.51.844.844 0 00.34.51 1.364 1.364 0 00.71.15 1.775 1.775 0 00.81-.13z"/><path data-name="パス 25" d="M95.1 138.71h1.57l.06 1.23h.11a1.778 1.778 0 01.71-1.05 2.433 2.433 0 011.3-.29v1.69a2.623 2.623 0 00-1.24.24 1.4 1.4 0 00-.63.77 4.4 4.4 0 00-.19 1.47v3.08h-1.68v-7.14z"/><path data-name="パス 26" d="M100.79 145.65a1.47 1.47 0 01-.77-1.04 16.121 16.121 0 010-4.67 1.472 1.472 0 01.77-1.03 4.535 4.535 0 011.97-.31 4.484 4.484 0 011.96.31 1.47 1.47 0 01.77 1.04 11.651 11.651 0 01.17 2.34 11.467 11.467 0 01-.17 2.33 1.491 1.491 0 01-.77 1.04 4.457 4.457 0 01-1.96.32 4.508 4.508 0 01-1.97-.32zm2.83-1.24a.682.682 0 00.29-.56c.03-.28.06-.8.06-1.57a13.156 13.156 0 00-.06-1.57.7.7 0 00-.29-.55 1.851 1.851 0 00-.86-.14 1.931 1.931 0 00-.87.14.677.677 0 00-.29.55 20.572 20.572 0 000 3.14.738.738 0 00.29.56 1.93 1.93 0 00.87.14 1.8 1.8 0 00.85-.14z"/><path data-name="パス 27" d="M108 145.64a1.872 1.872 0 01-.67-1.11 9.162 9.162 0 01-.21-2.23 9.694 9.694 0 01.2-2.22 1.921 1.921 0 01.66-1.13 2.151 2.151 0 011.27-.34 2.806 2.806 0 011.12.2 1.462 1.462 0 01.7.69h.1v-4.05h1.68v10.4h-1.57l-.06-.88h-.1a1.752 1.752 0 01-1.83.99 2.277 2.277 0 01-1.29-.32zm2.67-1.3a.73.73 0 00.34-.42 2.517 2.517 0 00.12-.64c.02-.26.04-.59.04-1 0-.38 0-.69-.02-.92a2.246 2.246 0 00-.1-.58.87.87 0 00-.34-.52 1.324 1.324 0 00-.7-.15 1.775 1.775 0 00-.81.13.781.781 0 00-.31.56 13.822 13.822 0 000 2.97.73.73 0 00.31.56 1.72 1.72 0 00.81.13 1.374 1.374 0 00.67-.13z"/><path data-name="パス 28" d="M118.74 144.96h-.1a1.449 1.449 0 01-.7.76 2.7 2.7 0 01-1.22.25 2.241 2.241 0 01-1.25-.29 1.443 1.443 0 01-.57-.85 6.307 6.307 0 01-.15-1.55v-4.56h1.68v3.85a9.368 9.368 0 00.06 1.3.633.633 0 00.27.48 1.755 1.755 0 00.73.11 1.282 1.282 0 00.78-.19.925.925 0 00.32-.6 7.432 7.432 0 00.08-1.25v-3.7h1.68v7.14h-1.57l-.06-.9z"/><path data-name="パス 29" d="M125.68 145.91a8.075 8.075 0 01-.95.06 3.217 3.217 0 01-1.78-.39 1.79 1.79 0 01-.74-1.14 10.6 10.6 0 01-.17-2.15 9.079 9.079 0 01.19-2.14 1.914 1.914 0 01.76-1.16 3.052 3.052 0 011.71-.38 8.018 8.018 0 01.97.06 5.005 5.005 0 01.8.15v1.32a6.814 6.814 0 00-1.33-.11 2.055 2.055 0 00-.95.16.822.822 0 00-.38.62 8.588 8.588 0 00-.09 1.49 7.6 7.6 0 00.1 1.5.837.837 0 00.39.61 2.171 2.171 0 00.94.15 8.484 8.484 0 001.37-.1v1.3a4.357 4.357 0 01-.85.15z"/><path data-name="パス 30" d="M133.47 142.83h-3.91a5.117 5.117 0 00.09 1.17.648.648 0 00.43.45 4.117 4.117 0 001.2.12c.61 0 1.26-.04 1.96-.11v1.3a5.957 5.957 0 01-1.06.15c-.44.03-.86.06-1.27.06a4.278 4.278 0 01-2.02-.36 1.709 1.709 0 01-.83-1.09 9.387 9.387 0 01-.19-2.22 9.158 9.158 0 01.19-2.19 1.782 1.782 0 01.8-1.13 3.792 3.792 0 011.92-.38 3.513 3.513 0 011.84.36 1.59 1.59 0 01.71 1.08 13.325 13.325 0 01.14 2.25v.53zm-3.5-2.72a.673.673 0 00-.32.46 6.2 6.2 0 00-.09 1.11h2.31a4.963 4.963 0 00-.09-1.12.658.658 0 00-.32-.46 1.777 1.777 0 00-.71-.11 1.659 1.659 0 00-.78.13z"/><path data-name="パス 31" d="M140.8 145.75a1.389 1.389 0 01-.72-.78h-.1l-.06.88h-1.57v-10.4h1.68v4.05h.1a1.4 1.4 0 01.71-.69 2.624 2.624 0 011.11-.2 2.082 2.082 0 011.27.34 1.972 1.972 0 01.66 1.13 12.178 12.178 0 01-.01 4.45 1.9 1.9 0 01-.67 1.12 2.2 2.2 0 01-1.29.33 2.588 2.588 0 01-1.11-.22zm1.22-1.41a.781.781 0 00.31-.56 13.822 13.822 0 000-2.97.73.73 0 00-.31-.56 1.72 1.72 0 00-.81-.13 1.534 1.534 0 00-.63.1.684.684 0 00-.34.35 1.9 1.9 0 00-.17.64 10.47 10.47 0 00-.04 1.08 9.926 9.926 0 00.04 1.06 2.163 2.163 0 00.15.62.666.666 0 00.34.39 1.389 1.389 0 00.64.11 1.775 1.775 0 00.81-.13z"/><path data-name="パス 32" d="M146.19 148.56v-1.3c.21 0 .35 0 .45.01h1.34a3.192 3.192 0 001.18-.13.7.7 0 00.44-.5 5.713 5.713 0 00.09-1.22v-.48h-.1a1.492 1.492 0 01-.67.71 2.5 2.5 0 01-1.18.23 2.183 2.183 0 01-1.27-.3 1.45 1.45 0 01-.56-.9 7.869 7.869 0 01-.14-1.66v-4.31h1.68v3.78a9.543 9.543 0 00.06 1.31.6.6 0 00.27.48 1.6 1.6 0 00.73.11 1.282 1.282 0 00.78-.19.971.971 0 00.32-.6 7.517 7.517 0 00.08-1.25v-3.64h1.68V145a9.309 9.309 0 01-.19 2.2 1.734 1.734 0 01-.83 1.12 4.1 4.1 0 01-2 .37 14.6 14.6 0 01-2.17-.14z"/><path data-name="パス 33" d="M99.85 161.14v-9.63h1.78v8.04h3.4v1.6h-5.18z"/><path data-name="パス 34" d="M106.35 152.34v-1.6h1.72v1.6zm.01 8.81v-7.14h1.69v7.14z"/><path data-name="パス 35" d="M110.52 155.42h-1.15v-1.41h1.15v-.64a4.254 4.254 0 01.27-1.78 1.255 1.255 0 01.88-.68 9.658 9.658 0 012.04-.15v1.26a5.525 5.525 0 00-.99.06.543.543 0 00-.4.27 1.637 1.637 0 00-.1.69v.97h1.5v1.41h-1.5v5.73h-1.69v-5.73z"/><path data-name="パス 36" d="M120.36 158.12h-3.91a5.117 5.117 0 00.09 1.17.648.648 0 00.43.45 4.117 4.117 0 001.2.12c.61 0 1.26-.04 1.96-.11v1.3a5.957 5.957 0 01-1.06.15c-.44.03-.86.06-1.27.06a4.278 4.278 0 01-2.02-.36 1.709 1.709 0 01-.83-1.09 9.387 9.387 0 01-.19-2.22 9.158 9.158 0 01.19-2.19 1.782 1.782 0 01.8-1.13 3.792 3.792 0 011.92-.38 3.513 3.513 0 011.84.36 1.59 1.59 0 01.71 1.08 13.325 13.325 0 01.14 2.25v.53zm-3.5-2.72a.673.673 0 00-.32.46 6.2 6.2 0 00-.09 1.11h2.31a4.963 4.963 0 00-.09-1.12.658.658 0 00-.32-.46 1.777 1.777 0 00-.71-.11 1.659 1.659 0 00-.78.13z"/><path data-name="パス 37" d="M129.49 157.29a9.2 9.2 0 00-.06-1.29.646.646 0 00-.25-.48 1.5 1.5 0 00-.67-.11 1.057 1.057 0 00-.69.18 1 1 0 00-.29.59 7.881 7.881 0 00-.07 1.27v3.7h-1.68v-3.85a9.2 9.2 0 00-.06-1.29.646.646 0 00-.25-.48 1.5 1.5 0 00-.67-.11 1.046 1.046 0 00-.7.19.949.949 0 00-.29.6 9.04 9.04 0 00-.07 1.25v3.7h-1.68v-7.14h1.57l.06.9h.1a1.52 1.52 0 01.67-.76 2.461 2.461 0 011.16-.25 2.2 2.2 0 011.16.25 1.279 1.279 0 01.55.76h.1a1.511 1.511 0 01.69-.76 2.563 2.563 0 011.19-.25 2.077 2.077 0 011.18.29 1.388 1.388 0 01.55.85 6.128 6.128 0 01.15 1.53v4.59h-1.68v-3.85z"/><path data-name="パス 38" d="M138.45 158.12h-3.91a5.117 5.117 0 00.09 1.17.648.648 0 00.43.45 4.117 4.117 0 001.2.12c.61 0 1.26-.04 1.96-.11v1.3a5.957 5.957 0 01-1.06.15c-.44.03-.86.06-1.27.06a4.278 4.278 0 01-2.02-.36 1.709 1.709 0 01-.83-1.09 9.387 9.387 0 01-.19-2.22 9.158 9.158 0 01.19-2.19 1.782 1.782 0 01.8-1.13 3.792 3.792 0 011.92-.38 3.513 3.513 0 011.84.36 1.59 1.59 0 01.71 1.08 13.325 13.325 0 01.14 2.25v.53zm-3.5-2.72a.673.673 0 00-.32.46 6.2 6.2 0 00-.09 1.11h2.31a4.963 4.963 0 00-.09-1.12.658.658 0 00-.32-.46 1.777 1.777 0 00-.71-.11 1.659 1.659 0 00-.78.13z"/><path data-name="パス 39" d="M144.07 157.29a9.27 9.27 0 00-.06-1.3.633.633 0 00-.27-.48 1.755 1.755 0 00-.73-.11 1.282 1.282 0 00-.78.19.971.971 0 00-.32.6 7.517 7.517 0 00-.08 1.25v3.7h-1.68V154h1.57l.06.9h.1a1.487 1.487 0 01.7-.76 2.7 2.7 0 011.22-.25 2.241 2.241 0 011.25.29 1.443 1.443 0 01.57.85 6.307 6.307 0 01.15 1.55v4.56h-1.68v-3.85z"/><path data-name="パス 40" d="M148.21 161.14v-5.73h-1.16V154h1.16v-2.07h1.68V154h1.4v1.41h-1.4v5.73z"/></g><path data-name="パス 41" d="M72.47 120V60h35.06v9.59H83.55v15.26h20.67v9.68H83.55v15.87h23.98v9.59H72.47z" fill="#fff"/></svg>